PathFileType	4	(X/Y/Z)	C:/Users/beibeiliu/ov580/test_trc/User3\sequence.6_training_dense_left.trc
DataRate	CameraRate	NumFrames	NumMarkers	Units	OrigDataRate	OrigDataStartFrame	OrigNumFrames
120	120	18	19	mm	120	147	195
Frame#	Time	ThumbCMC			ThumbMCP			ThumbIP			ThumbTip			IndexMCP			IndexPIP			IndexTip			MiddleMCP			MiddlePIP			MiddleTip			RingMCP			RingPIP			RingTip			PinkyMCP			PinkyPIP			PinkyTip			BackHand1			BackHand2			BackHand3	
		X0	Y0	Z0	X1	Y1	Z1	X2	Y2	Z2	X3	Y3	Z3	X4	Y4	Z4	X5	Y5	Z5	X6	Y6	Z6	X7	Y7	Z7	X8	Y8	Z8	X9	Y9	Z9	X10	Y10	Z10	X11	Y11	Z11	X12	Y12	Z12	X13	Y13	Z13	X14	Y14	Z14	X15	Y15	Z15	X16	Y16	Z16	X17	Y17	Z17	X18	Y18	Z18	
146	1.21667	-117.463	16.4956	51.4152	-92.0631	22.0777	22.7288	-101.227	27.3762	-8.69957	-121.659	24.8383	-20.3013	-101.917	57.8624	-11.2052	-99.1923	33.2675	-27.4183	-110.928	14.9559	-0.808135	-121.385	48.7347	-22.3417	-116.916	18.0866	-25.6766	-136.832	12.5954	11.4396	-143.84	41.9254	-24.6908	-134.891	11.7851	-22.957	-144.705	8.66401	9.02765	-159.485	39.3007	-26.4633	-144.968	16.1761	-25.1799	-147.94	9.223	1.59103	-168.613	54.0921	24.3427	-178.134	33.4485	52.1556	-139.557	44.7026	53.2486	
147	1.225	-109.837	17.4048	56.7671	-87.3527	19.6245	34.9184	-84.9096	31.0318	2.10234	-107.553	31.5454	-12.5732	-95.2739	69.1107	5.06768	-88.1328	49.4694	-22.2225	-98.5886	25.1968	-2.27138	-113.114	59.0738	-14.5259	-106.066	29.184	-22.2255	-127.477	17.1967	11.7656	-131.04	51.5214	-12.5278	-129.792	20.4422	-18.5378	-135.339	15.1212	16.5762	-148.458	45.5484	-20.1522	-143.743	20.5978	-18.7006	-154.788	16.6797	11.615	-158.007	58.1813	36.4756	-174.371	40.7369	54.8433	-138.437	45.574	58.5601	
148	1.23333	-102.504	18.0793	60.3188	-79.5602	26.71	30.2533	-83.5662	34.4958	-0.239466	-109.38	35.1085	-12.0122	-93.7794	68.4865	2.10295	-86.4557	41.9609	-16.2973	-99.6261	23.5777	8.68944	-113.438	61.3207	-9.29803	-108.175	28.1258	-16.2349	-119.35	19.8254	16.8399	-132.549	56.3474	-10.0473	-122.315	24.0344	-15.2873	-130.859	16.5917	13.9866	-149.539	56.563	-13.187	-136.49	33.8577	-22.8435	-144.682	15.5257	3.48282	-152.149	61.5215	39.3432	-169.676	38.7593	63.5712	-128.526	48.4776	65.9021	
149	1.24167	-106.225	15.3847	61.9032	-80.5111	26.8906	34.7659	-82.986	36.7933	3.72521	-106.731	39.8354	-10.4139	-87.8275	70.2697	9.65101	-82.1672	49.5352	-10.5454	-102.838	27.879	7.6439	-109.218	65.5928	-4.39111	-105.312	34.329	-14.2994	-117.743	21.4265	18.4435	-125.491	55.5583	-7.21276	-125.758	27.318	-11.4902	-130.343	19.2354	23.1709	-144.716	56.2459	-11.741	-134.477	30.9068	-14.6048	-135.49	18.4793	10.4196	-154.023	58.5983	48.0171	-164.486	38.3441	62.5052	-130.144	43.3277	66.9558	
150	1.25	-103.708	22.2212	61.516	-80.5003	26.1576	34.1728	-86.1522	35.0328	5.34553	-110.586	38.1679	-9.57463	-89.2991	70.746	13.3758	-84.5007	48.4127	-10.4468	-98.7992	25.8241	14.4596	-105.889	65.6101	-2.71204	-102.027	37.4842	-13.3934	-115.277	22.0921	22.0413	-129.114	62.5818	-5.65663	-119.961	32.3219	-14.8375	-124.431	19.857	13.6598	-147.093	59.7312	-9.09551	-135.356	39.025	-20.3714	-136.303	20.7575	7.97432	-154.193	57.7452	47.3653	-163.852	41.1864	65.7369	-131.021	47.3286	71.7553	
151	1.25833	-105.885	16.6361	61.7534	-80.7113	21.7535	38.6786	-84.86	34.7522	6.15145	-108.074	37.7565	-7.81572	-91.4435	71.8337	14.6014	-79.6732	50.5649	-9.6265	-93.5078	26.6019	9.77769	-105.728	63.7379	-2.9031	-99.4438	32.2586	-11.3471	-116.982	19.8039	23.4489	-124.167	57.8762	-4.94183	-119.657	27.7884	-13.2658	-131.06	17.2788	18.0614	-141.918	51.8357	-9.44712	-129.993	27.0414	-9.80976	-140.033	19.5335	20.4547	-155.945	59.2248	41.9315	-166.906	36.0196	62.5192	-134.066	44.5238	68.2672	
152	1.26667	-107.004	13.1472	64.4955	-83.3163	22.2761	39.3653	-80.3118	31.1187	9.47973	-102.741	33.6048	-8.17103	-89.4969	68.4696	16.2823	-78.2824	43.4552	-7.45962	-97.6663	24.236	7.59655	-106.821	57.3418	-3.30801	-99.952	27.3314	-10.3828	-115.967	15.63	22.1859	-124.944	53.5433	-9.19287	-117.633	27.0936	-15.6438	-124.363	14.2973	16.1492	-147.459	48.4815	-10.7295	-130.434	27.2167	-17.5915	-131.318	16.4174	9.78886	-156.34	53.3601	44.9285	-168.871	30.3415	60.1166	-132.965	43.0423	65.4436	
153	1.275	-111.212	15.3476	68.5097	-87.1298	18.6204	42.1947	-80.858	24.1972	12.7137	-95.1911	24.3654	-7.73026	-91.5579	64.4657	13.7104	-77.2578	39.61	-1.80785	-95.061	19.9523	16.6424	-109.525	60.4331	-3.6197	-91.118	35.3496	-13.6928	-105.009	15.2751	18.063	-121.282	50.7598	-8.35863	-110.37	22.9829	-15.8142	-120.93	9.46768	13.1039	-139.536	48.61	-11.4352	-124.594	29.35	-23.279	-128.945	7.99546	-0.057144	-159.375	51.1696	37.365	-173.719	27.6581	57.3335	-141.147	44.2935	62.9101	
154	1.28333	-113.158	17.0083	68.2028	-82.9602	21.9024	47.4906	-78.4148	26.46	16.2395	-76.7282	27.9412	-4.68842	-90.7088	64.4692	15.377	-73.9542	41.7165	-1.43689	-88.1489	18.5879	19.1878	-104.218	56.9517	-3.55221	-87.7603	26.7765	-10.5849	-106.112	13.0469	18.675	-119.205	45.5643	-9.48566	-104.601	15.7335	-12.7175	-113.866	9.38649	18.1406	-137.394	41.5921	-14.5693	-120.007	19.7989	-25.0165	-127.231	3.07301	-2.44928	-159.98	44.9027	31.0003	-173.005	26.3014	51.1311	-143.704	43.5342	60.0403	
155	1.29167	-112.705	27.0497	65.8591	-87.4503	34.6501	46.4823	-75.9931	33.1289	15.8988	-90.5979	20.8278	-1.05366	-94.3073	60.6662	0.837684	-74.4336	34.5978	-2.50345	-93.2355	19.2489	21.2837	-99.3128	44.2597	-9.73514	-87.2615	15.1067	-2.37733	-114.981	9.11438	23.2331	-114.429	35.4065	-16.1589	-98.979	8.28901	-10.1471	-114.894	1.92577	15.1322	-133.163	22.399	-23.3007	-110.574	4.49652	-19.3158	-119.483	1.33739	9.15919	-160.689	39.0808	18.64	-175.067	19.3247	39.7014	-145.448	42.697	52.314	
156	1.3	-120.684	31.1554	62.3627	-90.8778	38.1568	48.2961	-81.309	33.3182	16.6969	-89.9264	18.0979	-3.6448	-95.3856	59.9862	-0.396466	-70.0895	38.3964	3.9287	-86.132	24.8277	25.884	-101.819	41.3352	-13.4438	-81.2704	19.0761	-2.9175	-106.933	11.4095	25.6161	-109.706	27.4756	-20.1149	-91.8261	7.12164	-10.3661	-109.321	5.94532	21.6108	-124.146	14.8865	-25.8717	-100.835	1.25572	-14.8277	-114.671	-2.02115	11.7593	-162.852	29.294	12.1099	-176.121	11.2101	34.8213	-153.278	38.8883	43.8051	
157	1.30833	-122.394	34.9736	63.134	-90.2081	43.0601	45.7267	-78.8181	35.1166	21.864	-84.1031	16.5252	2.31018	-93.7549	58.6746	-3.09365	-71.6318	35.1642	0.62471	-88.6101	21.3577	21.0874	-96.6153	33.9084	-13.8377	-81.1427	12.4876	4.11634	-112.535	10.857	29.3513	-111.054	18.0494	-21.6625	-89.4744	0.711366	-6.3228	-111.795	3.40383	23.0091	-117.878	1.51324	-25.8279	-98.1415	-6.24954	-7.5896	-116.447	-4.51034	16.0706	-160.098	24.0314	7.96225	-174.22	7.71162	27.4821	-153.074	38.4322	38.7457	
158	1.31667	-131.86	40.6644	56.6658	-98.1378	51.5753	42.7861	-76.3914	40.7557	21.801	-82.3403	16.3002	6.4938	-103.871	59.4965	-5.84194	-78.4181	49.1451	9.41452	-98.9779	33.534	29.7847	-104.955	39.1534	-15.6442	-78.0997	34.3607	5.0043	-105.965	19.5779	29.9412	-104.144	20.2015	-20.85	-80.3498	19.1345	-0.861673	-100.065	18.5903	25.7017	-110.788	2.03684	-21.0914	-86.298	-0.912709	-10.1768	-99.7671	4.42134	18.3359	-158.831	7.0748	3.36396	-167.244	-1.32356	30.7086	-160.07	34.5928	32.0785	
159	1.325	-132.738	47.968	54.3159	-105.323	62.696	40.1972	-85.1074	54.8476	17.2463	-86.4899	26.0297	3.13608	-104.142	63.594	-8.1607	-71.833	55.1473	-0.815771	-72.1351	38.3802	28.5307	-96.3132	43.2358	-13.4192	-76.5124	30.0997	4.62045	-103.865	21.0648	31.028	-105.305	21.5726	-18.8417	-80.167	16.1506	0.30747	-101.545	16.1521	27.665	-109.156	6.17608	-17.7383	-86.3069	0.586557	-3.99674	-99.7487	-3.27777	20.5579	-157.249	11.6804	5.24141	-170.667	-0.423457	32.6352	-157.979	37.34	30.1026	
160	1.33333	-139.598	52.5729	50.0476	-111.346	72.7011	42.579	-85.331	66.4002	24.9883	-76.2061	42.4426	12.5663	-112.343	64.7933	-12.8711	-81.2619	67.9548	0.379501	-97.1056	49.8602	25.8468	-99.059	44.5352	-13.1459	-80.0697	43.0352	14.3057	-109.686	34.3582	34.4976	-96.4774	25.6735	-14.7553	-79.2653	25.0329	12.2959	-105.086	27.1946	32.4861	-96.4548	5.80959	-11.0548	-82.9474	14.7266	11.2276	-108.052	14.7807	30.2975	-149.517	8.92897	3.38912	-162.044	-6.61277	29.3167	-163.297	34.6169	26.3984	
161	1.34167	-151.6	54.5373	43.3294	-127.669	79.5156	33.4379	-98.3831	77.4426	19.2855	-85.9882	54.327	16.154	-119.598	64.0804	-18.6543	-93.1168	74.3402	-4.17804	-109.51	60.0883	25.8712	-105.336	47.8975	-14.7566	-84.3452	56.6742	10.8656	-114.249	46.3001	34.5878	-94.0774	29.242	-13.3408	-77.1175	38.4864	8.54585	-99.4366	35.4776	32.7156	-89.0843	11.989	-0.737008	-82.5463	27.9713	19.9165	-109.807	29.5324	33.7976	-144.832	-1.902	9.64277	-155.656	-9.77296	35.5809	-164.433	26.5586	22.1693	
162	1.35	-161.515	60.2959	41.52	-139.184	82.6396	26.0228	-110.968	79.5851	12.6731	-96.8117	57.2851	11.0812	-128.377	67.2848	-22.5527	-102.164	80.8458	-9.01519	-117.034	65.4252	20.9817	-110.05	50.4154	-17.2149	-94.2364	64.932	10.8512	-116.371	43.589	31.0556	-103.703	32.6649	-12.0024	-87.1015	49.0385	9.00539	-112.371	45.5858	31.7601	-93.3299	18.2035	-1.39755	-88.7869	37.9037	15.3577	-111.764	33.5405	34.9376	-146.803	1.87785	11.336	-157.644	-4.19011	37.6039	-170.708	25.3298	21.8148	
163	1.35833	-174.207	53.0438	27.868	-157.07	79.9311	15.7088	-125.17	82.0239	5.40888	-104.625	63.9403	10.2253	-132.156	61.0584	-29.7357	-120.023	84.4098	-13.2571	-131.93	70.3479	13.6515	-116.847	49.4061	-18.8568	-106.997	71.3445	5.20139	-131.38	52.7325	30.133	-99.194	34.4214	-13.2677	-93.0351	59.9759	3.02451	-117.9	52.9607	26.6129	-90.6975	25.1029	4.08503	-95.2823	49.9305	15.1778	-123.315	41.8612	28.533	-139.56	-2.90059	7.49962	-155.871	-10.2177	35.634	-173.514	16.2015	15.3046	
